<?xml version="1.0" encoding="UTF-8"?>
<svg id="_レイヤー_2" data-name="レイヤー_2" xmlns="http://www.w3.org/2000/svg" viewBox="0 0 365.383 452.003">
  <defs>
    <style>
      .cls-1, .cls-2, .cls-3 {
        fill: none;
      }

      .cls-2, .cls-3 {
        stroke: #fff9ef;
        stroke-linejoin: round;
        stroke-width: 4.175px;
      }

      .cls-3 {
        stroke-linecap: round;
      }

      .cls-4 {
        fill: #fff9ef;
      }

      .cls-5 {
        fill: #f05e1c;
        stroke: #f05e1c;
        stroke-miterlimit: 10;
        stroke-width: 15.82px;
      }
    </style>
  </defs>
  <g id="_レイヤー_1-2" data-name="レイヤー_1">
    <path class="cls-5" d="M357.473,227.872c0,119.415-78.244,216.221-174.763,216.221-104.796,0-176.664-121.744-174.763-216.221.289-14.383,3.353-81.064,39.537-111.465,32.137-27,63.847-3.074,96.976-35.55,27.731-27.185,19.237-59.746,38.251-69.206,49.941-24.849,174.763,77.109,174.763,216.221Z"/>
    <g>
      <path class="cls-4" d="M81.892,316.946c-2.88-4.08,2.32-9.6,6.641-5.2,6.8,6.961,19.76,6.4,31.841,2.961,6.64-1.841,8.56,6.8,2.08,8.8-15.841,4.96-35.041,1.2-40.562-6.561ZM90.852,284.305c-6.319,1.2-7.359-7.28-.239-8.32,7.6-1.12,18.88-1.199,25.521.24,6.72,1.44,4.96,9.681-1.521,8.32-7.44-1.6-15.92-1.76-23.761-.24ZM123.813,276.465c-.88-1.36-4.4-4.641-5.92-5.521-3.84-2.16-.16-6.56,3.36-4.72,2,1.04,5.76,3.6,7.28,5.68,2.72,3.681-2.48,8.001-4.721,4.561ZM127.013,265.905c-3.92-2.08-.32-6.64,3.28-4.96,2.08.96,5.84,3.521,7.44,5.521,2.8,3.6-2.24,8-4.561,4.64-.96-1.36-4.64-4.4-6.16-5.2Z"/>
      <path class="cls-4" d="M180.036,319.906v.16c0,5.28-3.6,10.881-13.761,10.881-3.199,0-10.24-.08-10.24-4.881,0-1.84,1.28-3.6,3.521-3.6.32,0,.72.08,1.12.16,2.16.479,4,.72,5.521.72,4.159,0,5.92-1.84,5.92-5.04v-23.841c-10.48.08-21.28.16-26.641.24h-.08c-2.08,0-3.2-1.68-3.2-3.36s1.12-3.359,3.2-3.359c5.76-.08,18.16-.16,29.921-.24-3.44-2.48-8.4-5.04-11.601-6.32-1.521-.56-2.08-1.6-2.08-2.72,0-1.681,1.6-3.521,3.84-3.521,1.92,0,7.601,2.72,10.32,4.16.16-.08,11.841-6.24,11.841-7.92,0-.4-.32-.561-7.28-.561-7.601,0-19.601.16-25.761.4h-.24c-2.56,0-3.92-1.68-3.92-3.36,0-1.76,1.36-3.52,4.08-3.6,3.76-.16,9.521-.16,15.44-.16,8.16,0,16.721.08,21.04.16,4.881.08,7.44,2.399,7.44,5.28,0,1.6-.8,3.359-2.48,4.96-2.159,2.16-8.56,6.32-13.6,8.88.16.16.319.32.479.4.88.8,1.2,1.76,1.2,2.72,0,.4,0,.8-.16,1.2,7.921,0,14.561,0,17.121.08,4.08.08,6.8,2.8,6.8,6.16,0,5.52-10.08,15.76-14.561,15.76-2.56,0-4.48-1.84-4.48-3.76,0-1.04.641-2.16,2.08-3.04,1.761-1.04,8.24-6,8.24-7.68,0-.48-.479-.801-1.52-.801h-17.601v18.241l.08,7.199Z"/>
      <path class="cls-4" d="M218.484,325.827c-1.84,0-3.6-1.28-3.6-3.2,0-.641.16-1.28.56-2,2.08-3.601,4.24-9.44,4.8-14.08.24-1.921,1.681-2.801,3.2-2.801,1.841,0,3.681,1.28,3.681,3.521,0,1.52-2.24,11.76-5.36,16.72-.8,1.28-2,1.841-3.28,1.841ZM228.884,327.346l.24-28c-.08,0-8.881,1.199-9.841,1.199-1.92,0-2.96-1.68-2.96-3.279,0-1.44.88-2.881,2.561-2.961,1.04-.079,2.16-.159,3.52-.239,1.44-1.681,3.04-3.761,4.641-6-2.4-2.641-6.721-5.921-8.96-7.36-1.12-.721-1.521-1.681-1.521-2.641,0-1.6,1.28-3.2,3.12-3.2.56,0,1.2.16,1.84.48l.4.16c2.24-3.521,5.04-9.44,6.16-13.761.399-1.6,1.76-2.319,3.2-2.319,1.92,0,4,1.359,4,3.279,0,1.601-4.16,10.801-8.16,16.561,1.28,1.04,2.56,2.16,3.6,3.2,2.561-4.16,4.801-8.48,6.08-11.601.561-1.439,1.761-2,2.96-2,2,0,4.001,1.44,4.001,3.521,0,2.24-6.881,13.2-12.721,20.88,2.88-.319,5.6-.64,7.601-.88-1.841-2.56-2.001-2.8-2.001-3.6,0-1.44,1.44-2.561,2.961-2.561,4,0,8.399,9.44,8.399,11.521,0,2.24-1.68,3.76-3.359,3.76-1.2,0-2.32-.8-2.881-2.56-.159-.561-.319-1.04-.56-1.601-1.2.24-2.96.561-4.96.881l.16,29.12c0,2.48-1.92,3.761-3.841,3.761-1.84,0-3.68-1.2-3.68-3.681v-.08ZM242.244,317.666c-.64-3.44-2.4-7.521-3.84-9.921-.4-.64-.561-1.199-.561-1.76,0-1.52,1.44-2.56,3.04-2.56,1.04,0,2.08.399,2.881,1.279,3.04,3.36,5.439,10.24,5.439,11.921,0,2.399-1.92,4-3.84,4-1.36,0-2.72-.88-3.12-2.96ZM257.765,280.465c-5.521,10.24-7.28,10.48-8.88,10.48-2.001,0-3.761-1.36-3.761-3.28,0-.72.32-1.6,1.04-2.48,4.8-5.68,8.721-15.12,10.4-21.84.48-1.84,1.92-2.721,3.521-2.721,2,0,4.08,1.36,4.08,3.601,0,2.399-2.961,8.96-3.12,9.36,3.2-.08,7.439-.16,10.72-.16,3.84,0,11.681.08,12.24,9.44.16,2.8.32,6.56.32,10.72,0,24.961-5.76,36.561-20.24,36.561-2.4,0-4.96-.399-7.761-1.04-2.16-.56-3.2-2.399-3.2-4.159,0-1.921,1.2-3.761,3.601-3.761.399,0,.8.08,1.28.16,2.239.561,4.319.88,6.08.88,7.68,0,12.4-6.8,12.4-28.721,0-10.48-.16-13.04-4.001-13.04h-14.72ZM261.765,304.706c-2.16-2.8-5.76-5.52-9.12-7.2-1.44-.72-2-1.84-2-2.88,0-1.76,1.52-3.52,3.76-3.52,2.72,0,14.24,6,14.24,10.8,0,2.32-2,4.24-4.08,4.24-1.04,0-2-.4-2.8-1.44Z"/>
      <path class="cls-4" d="M83.622,378.263c-1.229-3.881-1.114-8.837-.615-13.486.499-4.648,1.345-8.952,1.537-11.449.23-3.112,4.265-2.344,3.88.077-.269,1.729-.922,5.071-1.421,8.337-.5,3.267-.884,6.493-.73,8.03.077.691.115.807.5.039.115-.231.384-.923.461-1.114.884-1.845,3.804-.538,2.421,2.344-.5,1.037-.884,2.074-1.191,3.035-.308.96-.538,1.806-.691,2.42-.308,1.076.191,2.152-.769,3.074-.999.922-2.729.769-3.381-1.307ZM95.571,379.07c-3.342-1.921-3.419-6.301.577-8.068,2.074-.922,4.418-.96,6.762-.461,0-.614-.077-1.191-.115-1.921-.115-1.575-.192-4.534-.308-7.569-2.074.308-4.11.461-6.301.27-2.651-.23-2.19-4.15.769-3.65,1.69.308,3.534.192,5.417-.115-.038-2.151-.076-4.111-.038-5.303.077-2.497,3.842-2.151,3.688-.076-.077,1.075-.115,2.689-.115,4.572.653-.192,1.345-.346,1.959-.538,2.498-.769,4.15,2.728.846,3.534-.922.231-1.844.462-2.767.653.039,2.997.154,5.994.23,7.877.039.96.192,2.229.23,3.458,1.614.769,3.151,1.729,4.342,2.805,2.19,1.998-.538,5.341-2.459,3.304-.691-.691-1.498-1.383-2.382-1.997-1.46,3.035-6.147,5.609-10.336,3.227ZM102.564,374.037c-1.921-.729-3.842-.922-5.302-.23-.923.423-1.153,1.729-.23,2.268,1.844,1.037,4.956.23,5.57-2.037h-.038Z"/>
      <path class="cls-4" d="M119.368,374.805c-1.383-1.959,1.114-4.61,3.189-2.497,3.266,3.343,9.49,3.073,15.292,1.422,3.188-.884,4.111,3.266.999,4.226-7.607,2.383-16.829.577-19.48-3.15ZM123.672,359.129c-3.035.576-3.535-3.496-.115-3.996,3.65-.538,9.067-.576,12.257.115,3.227.691,2.382,4.649-.73,3.996-3.573-.769-7.646-.846-11.411-.115Z"/>
      <path class="cls-4" d="M156.307,367.198c2.113-1.537,4.764-2.92,7.607-3.304,8.068-1.076,11.719,6.032,6.877,11.795-2.112,2.536-6.224,4.495-10.335,5.033-3.688.5-3.881-3.343-.999-3.688,3.305-.384,6.416-1.652,7.992-3.458,2.805-3.15,2.151-6.801-3.074-6.378-2.421.192-5.148,1.806-6.762,3.535-.692.729-.884,1.844-2.19,2.189-1.69.462-2.997-1.19-2.728-3.15.307-2.189.845-6.108,1.421-9.874-1.152.115-2.344.077-3.611-.115-2.843-.461-2.536-4.342.538-3.65,1.075.23,2.344.27,3.649.039.385-2.459.769-4.572,1.038-5.764.614-2.612,4.418-1.46,3.688.922-.27.884-.538,2.151-.846,3.573.691-.346,1.384-.769,2.036-1.229,2.651-1.883,5.072,1.96,1.499,3.611-1.614.769-3.035,1.346-4.342,1.807-.615,3.381-1.191,6.762-1.46,8.106Z"/>
      <path class="cls-4" d="M191.419,381.068c-3.112.615-4.111-3.188-.845-3.842,1.997-.385,3.957-.961,5.148-1.652,4.226-2.459,5.379-5.11,4.571-6.646-.807-1.537-3.611-2.113-7.684-.27-2.268,1.037-4.688,2.844-5.148,3.305-2.268,2.189-3.804,1.114-4.496-.23-.691-1.345-.614-3.728-.307-6.532.307-2.805.807-5.763,1.114-7.723.384-2.459,3.88-2.382,3.534.385-.191,1.613-.614,3.765-.922,5.609-.308,1.883-.499,3.304-.23,3.996.115.307.308.307.653.115.769-.423,2.574-1.422,4.38-2.19,11.604-5.033,19.787,5.341,6.801,13.294-1.614.999-4.034,1.883-6.57,2.382ZM191.266,356.555c-1.845.461-3.228-1.998-1.614-2.882.192-.115.576-.308.308-.499-.807-.5-2.113-1.114-2.728-1.806-1.652-1.807.884-3.843,2.805-2.459.691.499,1.998,1.075,3.112,1.806,1.113.729,2.112,1.651,2.189,2.805.077,1.114-.499,2.382-2.421,2.689-.499.077-1.037.192-1.651.346Z"/>
      <path class="cls-4" d="M224.338,358.707c3.228-.269,5.687,1.614,5.841,5.917.076,2.689-.308,6.147-1.307,8.568-1.575,3.804-5.341,5.687-9.029,4.61-3.035-.884-1.806-4.418.538-3.842,2.19.537,3.804.191,4.88-2.075.884-1.883,1.229-4.61,1.229-6.646,0-2.344-.808-3.458-2.574-3.305-.577.038-1.153.115-1.768.192-1.883,5.955-4.457,11.181-7.454,15.445-1.844,2.612-5.84.384-3.343-2.421,2.651-2.958,5.033-7.338,6.801-12.486l-.461.076c-1.652.308-3.15.538-4.149.538-2.613,0-2.574-3.458-.115-3.688,1.19-.115,2.382-.077,3.765-.192l1.922-.191c.461-1.69.96-3.958,1.19-6.109.27-2.497,4.188-2.267,3.881.308-.153,1.306-.653,3.611-1.114,5.417l1.268-.115ZM238.478,367.352c-.922-2.113-2.651-5.034-5.494-6.609-1.883-1.037-.192-3.919,2.189-2.535,3.074,1.806,5.802,4.533,6.839,7.3.961,2.536-2.497,4.227-3.534,1.845Z"/>
      <path class="cls-4" d="M258.603,381.068c-3.112.615-4.111-3.188-.845-3.842,1.997-.385,3.957-.961,5.148-1.652,4.226-2.459,5.379-5.11,4.571-6.646-.807-1.537-3.611-2.113-7.684-.27-2.268,1.037-4.688,2.844-5.148,3.305-2.268,2.189-3.804,1.114-4.496-.23-.691-1.345-.614-3.728-.307-6.532.307-2.805.807-5.763,1.114-7.723.384-2.459,3.88-2.382,3.534.385-.191,1.613-.614,3.765-.922,5.609-.308,1.883-.499,3.304-.23,3.996.115.307.308.307.653.115.769-.423,2.574-1.422,4.38-2.19,11.604-5.033,19.787,5.341,6.801,13.294-1.614.999-4.034,1.883-6.57,2.382ZM258.449,356.555c-1.845.461-3.228-1.998-1.614-2.882.192-.115.576-.308.308-.499-.807-.5-2.113-1.114-2.728-1.806-1.652-1.807.884-3.843,2.805-2.459.691.499,1.998,1.075,3.112,1.806,1.113.729,2.112,1.651,2.189,2.805.077,1.114-.499,2.382-2.421,2.689-.499.077-1.037.192-1.651.346Z"/>
    </g>
    <g>
      <rect class="cls-1" x="107.529" y="98.165" width="150.325" height="150.326"/>
      <path class="cls-3" d="M240.756,204.999v-84.467h-116.126v105.593h85.747"/>
      <path class="cls-3" d="M124.629,135.147h116.126"/>
      <g>
        <path class="cls-2" d="M205.862,195.104h9.865"/>
        <path class="cls-2" d="M205.862,181.081h9.865"/>
        <path class="cls-2" d="M205.862,167.059h9.865"/>
        <path class="cls-2" d="M205.862,153.036h9.865"/>
        <path class="cls-2" d="M191.81,209.126h9.865"/>
        <path class="cls-2" d="M191.81,195.104h9.865"/>
        <path class="cls-2" d="M191.81,181.081h9.865"/>
        <path class="cls-2" d="M191.81,167.059h9.865"/>
        <path class="cls-2" d="M191.81,153.036h9.865"/>
        <path class="cls-2" d="M177.759,209.126h9.865"/>
        <path class="cls-2" d="M177.759,195.104h9.865"/>
        <path class="cls-2" d="M177.759,181.081h9.865"/>
        <path class="cls-2" d="M177.759,167.059h9.865"/>
        <path class="cls-2" d="M177.759,153.036h9.865"/>
        <path class="cls-2" d="M163.708,209.126h9.865"/>
        <path class="cls-2" d="M163.708,195.104h9.865"/>
        <path class="cls-2" d="M163.708,181.081h9.865"/>
        <path class="cls-2" d="M163.708,167.059h9.865"/>
        <path class="cls-2" d="M163.708,153.036h9.865"/>
        <path class="cls-2" d="M149.657,209.126h9.865"/>
        <path class="cls-2" d="M149.657,195.104h9.865"/>
        <path class="cls-2" d="M149.657,181.081h9.865"/>
        <path class="cls-2" d="M149.657,167.059h9.865"/>
        <path class="cls-2" d="M135.606,209.126h9.865"/>
        <path class="cls-2" d="M135.606,195.104h9.865"/>
        <path class="cls-2" d="M135.606,181.081h9.865"/>
        <path class="cls-2" d="M135.606,167.059h9.865"/>
        <path class="cls-2" d="M219.913,195.104h9.865"/>
        <path class="cls-2" d="M219.913,181.081h9.865"/>
        <path class="cls-2" d="M219.913,167.059h9.865"/>
        <path class="cls-2" d="M219.913,153.036h9.865"/>
      </g>
      <path class="cls-3" d="M218.269,218.592l9.959,9.914,23.3-25.997"/>
      <circle class="cls-3" cx="229.778" cy="221.912" r="19.401"/>
    </g>
  </g>
</svg>