<?xml version="1.0" encoding="UTF-8"?>
<svg xmlns="http://www.w3.org/2000/svg" version="1.1" viewBox="0 0 97.8 51">
  <defs>
    <style>
      .cls-1 {
        fill: #ab8f37;
      }
    </style>
  </defs>
  <!-- Generator: Adobe Illustrator 28.7.2, SVG Export Plug-In . SVG Version: 1.2.0 Build 154)  -->
  <g>
    <g id="_レイヤー_1" data-name="レイヤー_1">
      <g id="_レイヤー_2">
        <path class="cls-1" d="M45.1,8.6c.4,0,.6.2.6.5v25.4c0,.5.2,1,.4,1.3.2.4.6.7,1.3.8.3,0,1,0,2.1.2.2,0,.3.2.3.6s0,.6-.3.6c-1.9,0-3.8,0-5.9,0s-4.2,0-6.1,0c-.3,0-.4-.2-.4-.6s0-.6.4-.6c1.2,0,1.9-.2,2.3-.3.6,0,.9-.4,1.1-.8.3-.6.4-2.3.4-5.3v-14.3c0-1.7,0-2.7-.4-3.1,0-.2-.5-.4-.9-.4s-.9,0-1.4.2l-1.6.4h-.3c-.2,0-.3-.2-.4-.5v-.4c0-.2,0-.3.4-.4,2.7-1,5.5-2.2,8.5-3.6v.3Z"/>
        <g>
          <path class="cls-1" d="M18.5,45.9c.3,1,.9,1.9,1.4,2.8-1.6-.2-3.1-.4-4.7-.2-1.6.2-3.1.7-4.3,1.8,3.2,1.3,7,1,10-.8,0,0,.2,0,.2-.2v-.3c0-1.5,0-2.9-.3-4.3-.3-1.4-1-2.8-2-3.8-1,1.5-1,3.4-.4,5h0Z"/>
          <path class="cls-1" d="M6.1,44.6c2.7,2.1,6.4,2.8,9.5,1.3.4-1.4.6-2.8.6-4.1s-.3-3.4-1.3-4.7c-1.6,2.2-1.3,5-.8,7.7,0-.4-3.2-.8-3.7-.9-1.4-.2-3,0-4.3.7h0Z"/>
          <path class="cls-1" d="M4.2,39.5c1.9,1.1,4.1,1.7,6.2,1.6h.2s.1,0,.1-.2c.5-1.2.9-2.4,1.1-3.6s.1-2.6-.5-3.7c-1.6,1.4-2.3,4-2.1,6-1.7-1.8-4.6-2.8-6.9-2.1.6,1,1.2,1.5,1.8,2"/>
          <path class="cls-1" d="M1.4,32.2c1.4,1.6,3.4,2.7,5.4,3,1-1,1.8-2.1,2.3-3.3s.6-2.7.3-4c-1.9,1.2-3.2,3.2-3.6,5.4,0-.5-.4-.9-.8-1.3-1.2-1.2-3.1-2.5-4.8-2.6C0,29.9.8,31.8,1.3,32.3"/>
          <path class="cls-1" d="M4.6,28.8c2.2-1.2,3.8-3.7,3.8-6.3-1.9.8-3.4,2.5-3.8,4.6C3.8,24.9,2.3,22.8,0,22,0,22,.3,24,.4,24.3c.2.5.6,1.4.9,1.8.9,1.2,1.9,1.9,3.2,2.7h.1Z"/>
          <path class="cls-1" d="M4,21.9c2.3-1.1,4.5-3,5-5.5-2.1.6-3.7,1.8-4.7,3.6,0-1.1-.4-2-.7-3.1s-.9-2.1-1.8-2.9c-.5,1.5-.5,2.8,0,4.3.2.7.5,1.3.9,2,0,.2,1.2,1.7,1.4,1.6h-.1Z"/>
          <path class="cls-1" d="M5.2,15.2c.5,0,1.1-.2,1.6-.4.4-.1.7-.2,1-.4.3-.2.5-.4.8-.6.5-.4,1-.9,1.4-1.4s.7-1.1.7-1.8c-.4,0-.9,0-1.4.2-1.3.4-2.6,1.3-3.4,2.4.2-1.1.4-2.2.3-3.3s-.4-2.2-1.1-3.1c-1.1,2.1-1.6,4.3-.8,6.6,0,.2.7,1.8.9,1.7h0Z"/>
          <path class="cls-1" d="M7.9,8.5s0,.1,0,.2h.2c.9,0,1.7-.3,2.5-.6.7-.3,1.3-.6,1.9-1s1-1.1,1.2-1.8c-1.7-.2-3.5.5-4.7,1.8.4-.9.7-1.9.7-2.9s-.1-2.1-.7-2.9c-.4.8-.8,1.6-.9,1.8-.2.4-.4.8-.4,1.3-.2,1.4-.3,2.7,0,4.1h.1Z"/>
          <path class="cls-1" d="M11.7,4.2c.8-.7,1.9-.9,2.8-1.3,1.2-.6,2.2-1.6,2.7-2.8-.1,0-2,0-2.2,0-.6.1-1.1.6-1.5.9-.9.8-1.6,2-1.8,3.2h0Z"/>
        </g>
        <g>
          <path class="cls-1" d="M79.3,45.9c-.3,1-.9,1.9-1.4,2.8,1.6-.2,3.1-.4,4.7-.2s3.1.7,4.3,1.8c-3.2,1.3-7.1,1-10.1-.8,0,0-.2,0-.2-.2v-.3c0-1.5,0-2.9.3-4.3.3-1.4,1-2.8,2-3.8,1,1.5,1,3.4.4,5h0Z"/>
          <path class="cls-1" d="M91.7,44.6c-2.7,2.1-6.4,2.8-9.5,1.3-.4-1.4-.6-2.8-.6-4.1s.3-3.4,1.3-4.7c1.6,2.2,1.3,5,.8,7.7,0-.4,3.2-.8,3.7-.9,1.4-.2,3,0,4.3.7h0Z"/>
          <path class="cls-1" d="M93.6,39.5c-1.9,1.1-4.1,1.7-6.2,1.6h-.2s0,0,0-.2c-.5-1.2-.9-2.4-1.2-3.6-.2-1.2,0-2.6.5-3.7,1.6,1.4,2.3,4,2.1,6,1.7-1.8,4.6-2.8,6.9-2.1-.6,1-1.2,1.5-1.8,2"/>
          <path class="cls-1" d="M96.5,32.2c-1.4,1.6-3.4,2.7-5.4,3-1-1-1.8-2.1-2.3-3.3s-.7-2.7-.3-4c1.9,1.2,3.2,3.2,3.6,5.4,0-.5.4-.9.8-1.3,1.2-1.2,3.1-2.5,4.8-2.6.2.5-.6,2.4-1.1,2.9"/>
          <path class="cls-1" d="M93.2,28.8c-2.2-1.2-3.8-3.7-3.8-6.3,1.9.8,3.4,2.5,3.8,4.6.8-2.2,2.3-4.3,4.6-5.1,0,0-.3,2-.4,2.3-.2.5-.6,1.4-.9,1.8-.8,1.2-1.9,1.9-3.2,2.7h0Z"/>
          <path class="cls-1" d="M93.9,21.9c-2.3-1.1-4.5-3-5-5.5,2.1.6,3.7,1.8,4.7,3.6,0-1.1.4-2,.7-3.1s.9-2.1,1.8-2.9c.5,1.5.5,2.8,0,4.3-.2.7-.5,1.3-.9,2,0,.2-1.2,1.7-1.4,1.6h.1Z"/>
          <path class="cls-1" d="M92.7,15.2c-.5,0-1.1-.2-1.6-.4-.4-.1-.7-.2-1-.4s-.5-.4-.8-.6c-.5-.4-1-.9-1.4-1.4s-.7-1.1-.7-1.8c.4,0,.9,0,1.3.2,1.3.4,2.6,1.3,3.4,2.4-.2-1.1-.4-2.2-.3-3.3s.4-2.2,1.1-3.1c1.1,2.1,1.6,4.3.8,6.6,0,.2-.7,1.8-.9,1.7h0Z"/>
          <path class="cls-1" d="M89.9,8.5v.2h-.2c-.9,0-1.7-.3-2.5-.6-.7-.3-1.3-.6-1.9-1s-1-1.1-1.2-1.8c1.7-.2,3.5.5,4.7,1.8-.4-.9-.7-1.9-.7-2.9s.2-2.1.7-2.9c.4.8.8,1.6.9,1.8.2.4.4.8.4,1.3.2,1.4.3,2.7,0,4.1h-.2Z"/>
          <path class="cls-1" d="M86.2,4.2c-.8-.7-1.8-.9-2.8-1.3-1.2-.6-2.2-1.6-2.7-2.8,0,0,2,0,2.1,0,.6.1,1.1.6,1.5.9.9.8,1.6,2,1.8,3.2h0Z"/>
        </g>
        <path class="cls-1" d="M57.5,29.5c-.5.7-1.1,1.2-1.7,1.8h0s0,0,0-.1,0,0,0,0c1.1-1.4,1.9-3.2,2.5-5.3.3-.9.5-1.8.5-2.6.9.3,1.5.5,1.8.6.2.1.4.2.4.3,0,.2-.2.3-.6.4-.5,1.4-1.1,2.7-1.8,3.8.4,0,.7.1.8.2,0,0,0,.1,0,.2s0,.2-.4.4v8.3c0,.4-.3.7-.8.7s-.5,0-.6-.2c0,0,0-.2,0-.5v-8ZM64.7,36.6c.7-2.1,1.2-4.1,1.5-6.1.2-.9.2-1.6.3-2.1,1.2.4,1.9.6,2.1.7.2,0,.2.2.2.3s0,.2-.2.3c0,0-.3,0-.5.1-.7,1.9-1.2,3.3-1.6,4.3-.4.9-.8,1.8-1.3,2.6h2.7c.6-.8,1-1.2,1.2-1.2s.5.3,1.2.9c.3.3.5.5.5.6s0,.2-.2.2h-11l-.2-.6c.5,0,.9,0,1.3,0h4.1,0ZM63.8,27.1v-3.8c1.4.1,2.1.3,2.1.5s-.2.3-.5.4v2.8h2.3c.6-.7.9-1.1,1.1-1.1s.5.3,1.1.8c.3.2.5.4.5.5s0,.2-.2.2h-10l-.2-.6c.4,0,.8.1,1.2.1h2.8l-.2.2ZM63.8,33.4c0,.5,0,.9-.3,1.2s-.4.4-.7.4c-.5,0-.7-.3-.7-.8,0-2-.3-3.8-.8-5.3h0s0-.1,0-.1,0,0,0,0c1.6,1.7,2.4,3.3,2.4,4.7h0Z"/>
      </g>
    </g>
  </g>
</svg>